<svg xmlns="http://www.w3.org/2000/svg" width="62" height="62" viewBox="0 0 62 62">
  <g fill="none" fill-rule="evenodd" transform="translate(6)">
    <path fill="#FFF" fill-rule="nonzero" d="M43.512693,22.8060743 C43.512693,19.1492466 41.2529631,15.9522419 37.8523803,14.708309 C38.0019643,13.9374292 38.0799062,13.1665495 38.0799062,12.3637703 C38.0799062,5.56609275 32.5680054,0.0355745417 25.7921854,0.0355745417 C21.834435,0.0355745417 18.1525579,1.94013554 15.8389133,5.1491944 C14.70143,4.26365292 13.304482,3.77854553 11.8470266,3.77854553 C8.25085634,3.77854553 5.32510389,6.71418023 5.32510389,10.3224972 C5.32510389,11.1196903 5.46692303,11.8829259 5.73283393,12.6029429 C2.35217605,13.8271775 0.0275433882,17.0991534 0.0275433882,20.7327547 C0.0275433882,24.4083986 2.29826133,27.6198095 5.7142275,28.8549224 C5.56918519,29.616982 5.48992469,30.4032969 5.48992469,31.198285 C5.48992469,37.9805273 10.9887863,43.4978153 17.748051,43.4978153 C21.715764,43.4978153 25.3954434,41.5854632 27.6959024,38.3631741 C28.8410041,39.2651799 30.2413217,39.7604304 31.6932098,39.7604304 C35.2893801,39.7604304 38.2151325,36.8258247 38.2151325,33.2175078 C38.2151325,32.4201676 38.0733134,31.65605 37.8074025,30.935886 C41.1882069,29.7128274 43.512693,26.4398226 43.512693,22.8060743" transform="translate(3.198 .003)"/>
    <path fill="#FDD20B" fill-rule="nonzero" d="M1.90459599,17.0318263 L11.4196646,21.3844156 L21.0198539,12.9441351 C21.1588894,12.2479325 21.2268688,11.5537879 21.2268688,10.8273029 C21.2268688,4.88885344 16.4126362,0.0574778752 10.4941774,0.0574778752 C6.95353346,0.0574778752 3.65111052,1.80665751 1.64381285,4.73964617 L0.0470288703,13.0523287 L1.90459599,17.0318263 Z" transform="translate(18.417 1.725)"/>
    <path fill="#1EBAB0" fill-rule="nonzero" d="M0.293014768,8.62579734 C0.153979261,9.32199994 0.0829231793,10.0442219 0.0829231793,10.7749701 C0.0829231793,16.7287077 4.91107402,21.5731665 10.8457951,21.5731665 C14.415301,21.5731665 17.7339863,19.8076696 19.7380608,16.8443985 L21.3229777,8.55994034 L19.2078506,4.50458959 L9.65512962,0.135830068 L0.293014768,8.62579734 Z" transform="translate(10.18 20.241)"/>
    <path fill="#EF5198" fill-rule="nonzero" d="M0.439522152,7.02361994 L6.9604193,8.56846647 L8.38915931,1.1294182 C7.4981014,0.446151793 6.39797746,0.072178099 5.26664744,0.072178099 C2.43290162,0.072178099 0.128193961,2.38569933 0.128193961,5.22901662 C0.128193961,5.85715718 0.232653726,6.45927835 0.439522152,7.02361994" transform="translate(9.972 5.321)"/>
    <path fill="#17A7E0" fill-rule="nonzero" d="M4.98125105,0.0762941617 C2.06780522,1.04489191 0.0421941266,3.84719558 0.0421941266,6.92939151 C0.0421941266,9.93058921 1.89214286,12.610587 4.6687508,13.6712082 L13.8175509,5.37366682 L12.1378437,1.77255299 L4.98125105,0.0762941617 Z" transform="translate(4.865 13.827)"/>
    <path fill="#92C740" fill-rule="nonzero" d="M0,7.52328055 C0.894281072,8.21301505 1.98898424,8.58919378 3.10639606,8.58919378 C5.93999538,8.58919378 8.24484954,6.27684857 8.24484954,3.43353128 C8.24484954,2.80641973 8.14024327,2.20429856 7.93337484,1.63995697 L1.41789846,0.110104676 L0,7.52328055 Z" transform="translate(31.59 29.562)"/>
    <path fill="#087AA1" fill-rule="nonzero" d="M2.05110338,11.9803884 L9.22381188,13.663711 C12.1382833,12.6971713 14.1640409,9.89383865 14.1640409,6.8106137 C14.1640409,3.81485509 12.3096969,1.13794433 9.52766819,0.0807042288 L0.146067862,8.32738279 L2.05110338,11.9803884 Z" transform="translate(30.864 15.978)"/>
    <path fill="#231F20" fill-rule="nonzero" d="M6.59283228,4.59661299 C6.59283228,3.39472269 6.40061459,2.54563776 6.01661874,2.0490642 C5.63247638,1.55263764 5.00747588,1.30435086 4.14176374,1.30435086 C3.27561209,1.30435086 2.62482629,1.56586784 2.18867381,2.08816679 C1.75222831,2.61090675 1.52763249,3.44705549 1.51488635,4.59661299 L6.59283228,4.59661299 Z M7.12011235,8.84894674 L7.6865099,8.79029284 L7.72562737,9.94646545 C6.24121456,10.1552086 4.97187458,10.2600212 3.91716793,10.2600212 C2.51099005,10.2600212 1.51488635,9.85194301 0.928856814,9.03519857 C0.343120293,8.21889514 0.0501055253,6.94820779 0.0501055253,5.22372454 C0.0501055253,1.78769422 1.41042659,0.0696790609 4.13194775,0.0696790609 C5.44699803,0.0696790609 6.42991607,0.438948684 7.08114139,1.17689992 C7.7320737,1.91514516 8.0576131,3.07484582 8.0576131,4.65526688 L7.97952467,5.77233689 L1.53437183,5.77233689 C1.53437183,6.8569194 1.72966618,7.66028664 2.12040137,8.18273259 C2.51099005,8.70532555 3.19107733,8.96669553 4.16124923,8.96669553 C5.13112811,8.96669553 6.11741582,8.92744593 7.12011235,8.84894674 Z" transform="translate(.011 50.554)"/>
    <rect width="1.465" height="12.898" x=".108" y=".132" fill="#231F20" transform="translate(10.004 47.708)"/>
    <path fill="#231F20" fill-rule="nonzero" d="M1.61158122,7.20237466 C1.61158122,8.40455897 2.10633666,9.00521012 3.09599404,9.00521012 C3.98119165,9.00521012 4.85364312,8.85526783 5.71305544,8.55450125 L6.16224708,8.39764986 L6.16224708,5.16433563 L3.27165639,5.43864181 C2.68577336,5.49097461 2.26251353,5.66090919 2.00216991,5.94815157 C1.74153327,6.23568795 1.61158122,6.65361531 1.61158122,7.20237466 M7.6270279,3.20464879 L7.6270279,8.14730505 C7.6270279,8.63696951 8.84274617,8.61756521 8.84274617,8.61756521 L8.7678809,9.91603598 C7.73910605,9.91603598 6.88731212,10.0017383 6.37570834,9.50531173 C5.20379577,10.0279047 4.03349479,10.2398819 2.86158222,10.2398819 C1.96319895,10.2398819 1.27959549,9.98498003 0.81091837,9.47561728 C0.342094742,8.96610752 0.107682927,8.23447738 0.107682927,7.28072686 C0.107682927,6.32727034 0.348541066,5.62474664 0.830403852,5.17403778 C1.31197362,4.72332892 2.06721919,4.44593569 3.09599404,4.3412701 L6.16224708,4.04726562 L6.16224708,3.20464879 C6.16224708,2.53843465 6.01881635,2.06155939 5.73254092,1.77402301 C5.44597248,1.48692764 5.05538379,1.34286545 4.56077486,1.34286545 L0.712172393,1.3460995 L0.712172393,0.0495397543 L4.46305444,0.0495397543 C5.56962471,0.0495397543 6.37380374,0.304294633 6.87515201,0.813804391 C7.37620726,1.32331415 7.6270279,2.12036029 7.6270279,3.20464879" transform="translate(13.174 50.574)"/>
    <path fill="#231F20" fill-rule="nonzero" d="M3.6626846,1.40284236 C2.24332106,1.40284236 1.5337858,1.89941592 1.5337858,2.89212204 C1.5337858,3.34974 1.696409,3.67299793 2.02209491,3.86218981 C2.34734131,4.05182269 3.08954771,4.24777668 4.24856763,4.45019876 C5.40729453,4.65276784 6.22758937,4.93707017 6.70945216,5.30251774 C7.19102193,5.66855331 7.43217308,6.35431875 7.43217308,7.36025507 C7.43217308,8.36633839 7.10985684,9.10428962 6.46522435,9.57454978 C5.82073836,10.0449569 4.88001445,10.2801605 3.64319912,10.2801605 C2.83565042,10.2801605 0.141526133,9.98027596 0.141526133,9.98027596 L0.219614569,8.70650157 C1.76819762,8.85629685 2.88780705,8.96713654 3.64319912,8.96713654 C4.39815167,8.96713654 4.9742187,8.8464477 5.37154673,8.60462902 C5.76858174,8.36295734 5.96724575,7.95796617 5.96724575,7.38965552 C5.96724575,6.82134486 5.79788321,6.436052 5.45945116,6.23348291 C5.12072608,6.03106083 4.37851968,5.8383409 3.23297844,5.65532311 C2.08699768,5.47259933 1.27314917,5.20461425 0.791725903,4.85180887 C0.309863117,4.49915051 0.0690049778,3.84601956 0.0690049778,2.89212204 C0.0690049778,1.93866552 0.404067365,1.23320178 1.07477817,0.775730811 C1.74534247,0.31855385 2.58175312,0.0898183676 3.58444966,0.0898183676 C4.37851968,0.0898183676 7.13447008,0.292534454 7.13447008,0.292534454 L7.13447008,1.57395297 C5.68477951,1.50750795 4.49572558,1.40284236 3.6626846,1.40284236" transform="translate(22.855 50.534)"/>
    <path fill="#231F20" fill-rule="nonzero" d="M6.00680274,4.35200126 L2.90143223,4.35200126 L2.90143223,9.03563958 C2.90143223,10.1594717 2.98259732,10.8972759 3.14551353,11.2500813 C3.30828324,11.6028867 3.69550225,11.7791424 4.3076101,11.7791424 L6.04577371,11.6615406 L6.14349413,12.8765141 C5.27104266,13.0201352 4.60692469,13.0921663 4.15128672,13.0921663 C3.13584405,13.0921663 2.4326086,12.8441736 2.04201992,12.347453 C1.65143123,11.8511734 1.45613689,10.904038 1.45613689,9.50589974 L1.45613689,4.35200126 L0.0694445,4.35200126 L0.0694445,3.07822687 L1.45613689,3.07822687 L1.45613689,0.0799692176 L2.90143223,0.0799692176 L2.90143223,3.07822687 L6.00680274,3.07822687 L6.00680274,4.35200126 Z" transform="translate(31.346 47.741)"/>
    <path fill="#231F20" fill-rule="nonzero" d="M0.0836557162,3.08895803 L1.54843654,3.08895803 L1.54843654,13.0076401 L0.0836557162,13.0076401 L0.0836557162,3.08895803 Z M0.0836557162,0.132302014 L1.54843654,0.132302014 L1.54843654,1.83723397 L0.0836557162,1.83723397 L0.0836557162,0.132302014 Z" transform="translate(39.305 47.73)"/>
    <path fill="#231F20" fill-rule="nonzero" d="M4.10220675,0.099961522 C4.53191291,0.099961522 5.26093365,0.178460717 6.2897085,0.335165103 L6.75838562,0.393965999 L6.69978267,1.5892412 C5.65796866,1.47178641 4.88983045,1.41298551 4.39522152,1.41298551 C3.28835823,1.41298551 2.53633583,1.67744254 2.13944733,2.2066506 C1.7421193,2.73571165 1.5437483,3.71548157 1.5437483,5.14610736 C1.5437483,6.57658614 1.72922665,7.57311431 2.10032986,8.13466286 C2.47143306,8.69635841 3.24294094,8.97727969 4.414707,8.97727969 L6.71941466,8.800877 L6.7778711,10.0158505 C5.56698758,10.1985743 4.66186496,10.2901567 4.06323579,10.2901567 C2.5397055,10.2901567 1.48822201,9.89824871 0.90893181,9.11443278 C0.329495107,8.33061684 0.0398500084,7.0077437 0.0398500084,5.14610736 C0.0398500084,3.28432401 0.352350258,1.97806212 0.977350758,1.22673368 C1.60235126,0.475699243 2.64387225,0.099961522 4.10220675,0.099961522" transform="translate(43.096 50.524)"/>
  </g>
</svg>
